<?xml version="1.0" encoding="utf-8"?>
<svg version="1.1" width="1280" height="163" xmlns="http://www.w3.org/2000/svg">
  <path d="M0 0 C6.48624056 5.17903277 11.367147 13.04479651 16.27783203 19.69360352 C19.87321493 24.55013785 23.60047324 29.27008055 27.4375 33.9375 C32.13206993 39.66114359 36.73504813 45.44587855 41.25 51.3125 C41.81130615 52.03622803 42.3726123 52.75995605 42.95092773 53.50561523 C43.72545288 54.51797241 43.72545288 54.51797241 44.515625 55.55078125 C44.97227539 56.14544189 45.42892578 56.74010254 45.89941406 57.3527832 C47 59 47 59 48 62 C48.99 62 49.98 62 51 62 C51 41.87 51 21.74 51 1 C53.3796612 -0.1898306 54.91485735 -0.13349966 57.5625 -0.125 C58.77099609 -0.12886719 58.77099609 -0.12886719 60.00390625 -0.1328125 C62 0 62 0 63 1 C63.09514592 3.70838086 63.12554932 6.39118513 63.11352539 9.09985352 C63.11367142 9.94856018 63.11381744 10.79726685 63.1139679 11.67169189 C63.11326848 14.49078891 63.10547478 17.30982071 63.09765625 20.12890625 C63.09579217 22.07803817 63.09436822 24.02717055 63.09336853 25.9763031 C63.08954255 31.11706832 63.07971159 36.25780547 63.06866455 41.39855957 C63.05845215 46.64005148 63.05387128 51.8815479 63.04882812 57.12304688 C63.03808939 67.41537694 63.02101201 77.70768614 63 88 C61.55490126 88.03891952 60.10950066 88.06674314 58.6640625 88.08984375 C57.4567749 88.11485962 57.4567749 88.11485962 56.22509766 88.14038086 C52.68364955 87.91695178 51.38783822 86.57635176 49 84 C46.57347144 81.06626356 44.27020456 78.05584839 42 75 C38.39265945 70.15989882 34.73517313 65.36746326 31 60.625 C30.54149658 60.04153809 30.08299316 59.45807617 29.6105957 58.85693359 C27.46654897 56.12932793 25.32032168 53.40361723 23.16357422 50.68603516 C21.24961688 48.27397127 19.34323994 45.85605902 17.4375 43.4375 C16.52581055 42.29498779 16.52581055 42.29498779 15.59570312 41.12939453 C12.72743569 37.47746966 10.67940087 34.35307391 9 30 C8.01 29.67 7.02 29.34 6 29 C5.34 28.34 4.68 27.68 4 27 C3.67 47.13 3.34 67.26 3 88 C-0.63 88 -4.26 88 -8 88 C-9.56998834 84.86002332 -9.12944545 81.50823639 -9.11352539 78.06201172 C-9.11367142 77.24241974 -9.11381744 76.42282776 -9.1139679 75.57839966 C-9.11326974 72.8621356 -9.10548188 70.14593962 -9.09765625 67.4296875 C-9.09579173 65.54924558 -9.09436798 63.66880317 -9.09336853 61.7883606 C-9.08954607 56.83338078 -9.07971808 51.87843017 -9.06866455 46.92346191 C-9.05844461 41.86955155 -9.05386966 36.81563647 -9.04882812 31.76171875 C-9.03809559 21.84113299 -9.0210224 11.92056892 -9 2 C-5.76904291 0.28891456 -3.70163401 -0.55437888 0 0 Z M2 24 C3 26 3 26 3 26 Z " transform="translate(704,43)" style="fill: rgb(237, 239, 236);"/>
  <path d="M 0 0 C 4.963 0.793 9.95 0.955 14.965 1.16 C 18.152 1.504 18.152 1.504 21.152 3.504 C 21.465 6.004 21.465 6.004 21.152 8.504 C 18.69 10.967 16.446 11.502 13.152 12.504 C 13.199 13.361 13.245 14.218 13.293 15.102 C 13.517 22.21 13.63 26.848 9.152 32.504 C 5.002 36.748 1.071 39.035 -4.848 39.504 C -9.872 39.361 -14.846 38.986 -19.848 38.504 C -20.178 40.814 -20.508 43.124 -20.848 45.504 C -13.123 48.67 -6.195 48.895 2.068 48.68 C 8.675 48.744 11.957 50.165 16.689 54.804 C 19.812 58.433 19.603 61.978 19.566 66.609 C 18.724 72.499 14.801 75.937 10.652 79.879 C 4.057 84.166 -2.675 83.838 -10.285 83.816 C -11.392 83.833 -12.498 83.849 -13.639 83.865 C -22.351 83.87 -28.29 82.664 -34.848 76.504 C -34.848 75.844 -34.848 75.184 -34.848 74.504 C -35.508 74.504 -36.168 74.504 -36.848 74.504 C -38.354 69.984 -38.593 66.144 -36.598 61.754 C -34.861 59.522 -33.204 58.048 -30.848 56.504 C -30.992 55.658 -31.136 54.813 -31.285 53.941 C -31.471 52.807 -31.656 51.673 -31.848 50.504 C -32.095 49.328 -32.343 48.153 -32.598 46.941 C -32.892 42.895 -32.21 41.711 -29.848 38.504 C -29.291 37.576 -28.734 36.648 -28.16 35.691 C -27.727 34.97 -27.294 34.248 -26.848 33.504 C -28.271 32.452 -28.271 32.452 -29.723 31.379 C -32.911 28.666 -34.141 26.743 -34.848 22.504 C -34.917 15.838 -34.391 10.678 -29.848 5.504 C -21.439 -2.905 -10.772 -2.16 0 0 Z M -19.848 10.504 C -22.586 13.989 -23.081 16.81 -22.91 21.129 C -22.352 24.508 -21.921 25.422 -19.535 28.066 C -14.227 30.136 -9.467 30.361 -3.848 29.504 C -0.348 28.004 -0.348 28.004 1.152 24.504 C 2.233 17.258 2.233 17.258 -0.195 10.711 C -6.409 6.172 -13.459 6.931 -19.848 10.504 Z M -24.63 59.843 C -26.453 62.33 -26.661 64.459 -26.848 67.504 C -25.977 69.891 -25.347 71.174 -23.211 72.586 C -14.707 75.615 -4.061 75.381 4.152 71.504 C 6.089 70.484 5.692 70.528 6.755 68.548 C 7.661 65.745 8.213 63.112 6.755 60.548 C 0.821 57.948 -4.681 58.172 -11.035 58.191 C -12.128 58.175 -13.22 58.159 -14.346 58.143 C -15.392 58.142 -16.438 58.141 -17.516 58.141 C -18.943 58.136 -18.943 58.136 -20.399 58.132 C -22.885 58.312 -22.885 58.312 -24.63 59.843 Z" transform="translate(966.84765625,69.49609375)" style="fill: rgb(237, 239, 236);"/>
  <path d="M0 0 C1.19109375 -0.00386719 1.19109375 -0.00386719 2.40625 -0.0078125 C4.5 0.125 4.5 0.125 6.5 1.125 C6.50142502 1.7954837 6.50285004 2.46596741 6.50431824 3.1567688 C6.52415849 10.19883 6.57873616 17.24004102 6.65258789 24.28173828 C6.67564156 26.90211872 6.69013361 29.52259017 6.69555664 32.14306641 C6.05725726 52.36850344 6.05725726 52.36850344 12.5 71.125 C18.41287021 76.54918625 24.59670853 77.48739991 32.421875 77.40234375 C38.37579751 76.86588626 42.52127497 74.52388136 46.4375 70.0625 C49.35075709 65.91331566 49.63029991 63.07905234 49.67358398 58.12475586 C49.68707382 56.89015121 49.70056366 55.65554657 49.71446228 54.38352966 C49.71952223 53.72460661 49.72458218 53.06568356 49.72979546 52.38679314 C49.7462246 50.32341006 49.76946046 48.26020775 49.79469299 46.19691467 C49.8654344 40.33148201 49.92570749 34.46597799 49.97680664 28.6003418 C50.00855045 25.01117437 50.04980653 21.42221924 50.09700203 17.83322334 C50.11304144 16.46449143 50.12535405 15.09571069 50.13390923 13.72691154 C50.14602694 11.81648016 50.17120552 9.90614499 50.19702148 7.99584961 C50.20732895 6.90791611 50.21763641 5.8199826 50.22825623 4.69908142 C50.5 2.125 50.5 2.125 52.5 0.125 C54.84765625 -0.10546875 54.84765625 -0.10546875 57.5625 -0.0625 C58.91021484 -0.05283203 58.91021484 -0.05283203 60.28515625 -0.04296875 C62.5 0.125 62.5 0.125 63.5 1.125 C63.62041676 3.13218482 63.67025048 5.14363046 63.69287109 7.15429688 C63.70893402 8.44654175 63.72499695 9.73878662 63.74154663 11.07019043 C63.75303913 12.49470359 63.76364681 13.91922413 63.7734375 15.34375 C63.77876118 16.05974869 63.78408485 16.77574738 63.78956985 17.51344299 C63.81633919 21.31038341 63.83569332 25.10729067 63.85009766 28.90429688 C63.86666636 32.81046929 63.91136547 36.71578486 63.9624691 40.62163544 C63.99629977 43.6364426 64.00769276 46.65105152 64.01332474 49.66603088 C64.02000434 51.10444103 64.03514007 52.54283968 64.05921555 53.98106384 C64.19609734 62.66034375 63.78979783 69.05694904 58.5 76.125 C58.01260345 76.79736694 57.52520691 77.46973389 57.02304077 78.16247559 C52.80662804 83.76637454 47.28975312 86.66514969 40.5 88.125 C37.08646012 88.36892987 33.67141027 88.35607104 30.25 88.375 C29.33347656 88.395625 28.41695313 88.41625 27.47265625 88.4375 C17.92444997 88.49198335 10.48027958 85.7683935 3.5 79.125 C-5.81011833 68.51541286 -6.81086948 59.24093478 -6.6953125 45.55859375 C-6.6924826 44.28395767 -6.68965271 43.00932159 -6.68673706 41.69606018 C-6.6774899 38.3373946 -6.65957871 34.9790104 -6.6373291 31.62042236 C-6.61672468 28.18121752 -6.60770441 24.74198339 -6.59765625 21.30273438 C-6.57568358 14.57674639 -6.54227195 7.85088941 -6.5 1.125 C-4.13386544 -0.05806728 -2.63219264 -0.00854608 0 0 Z " transform="translate(346.5,42.875)" style="fill: rgb(237, 239, 236);"/>
  <path d="M0 0 C0.80566406 0.00257812 1.61132812 0.00515625 2.44140625 0.0078125 C3.64603516 0.00394531 3.64603516 0.00394531 4.875 0 C7.00390625 0.1328125 7.00390625 0.1328125 9.00390625 1.1328125 C9.33390625 11.6928125 9.66390625 22.2528125 10.00390625 33.1328125 C13.05864549 33.1328125 15.27319624 31.51659215 17.93359375 30.10546875 C23.92737568 27.28952214 30.83158227 27.22156242 37.12890625 29.1328125 C43.8671538 31.97067724 48.31323492 38.55561592 51.00390625 45.1328125 C52.38727864 49.81560407 52.26586859 54.47206629 52.31640625 59.3203125 C52.34541016 60.22845703 52.37441406 61.13660156 52.40429688 62.07226562 C52.4969643 72.03045008 48.66689789 79.81557362 42.00390625 87.1328125 C36.73501443 91.02175646 32.08378611 91.30550855 25.62890625 91.3828125 C24.34242188 91.40859375 23.0559375 91.434375 21.73046875 91.4609375 C17.76840892 91.11207689 15.45457378 90.022227 12.00390625 88.1328125 C11.01390625 88.1328125 10.02390625 88.1328125 9.00390625 88.1328125 C8.34390625 89.1228125 7.68390625 90.1128125 7.00390625 91.1328125 C4.875 91.4609375 4.875 91.4609375 2.44140625 91.3828125 C1.63574219 91.36734375 0.83007812 91.351875 0 91.3359375 C-1.99609375 91.1328125 -1.99609375 91.1328125 -2.99609375 90.1328125 C-4.37859933 79.12902004 -4.15437751 67.9511515 -4.12109375 56.8828125 C-4.11987518 56.00149658 -4.11865662 55.12018066 -4.11740112 54.2121582 C-4.09668711 41.34803255 -3.92031327 28.49185401 -3.55859375 15.6328125 C-3.53903625 14.89526733 -3.51947876 14.15772217 -3.49932861 13.39782715 C-3.44298184 11.34050409 -3.37936863 9.28356742 -3.3125 7.2265625 C-3.27584229 6.06833984 -3.23918457 4.91011719 -3.20141602 3.71679688 C-2.9215269 0.19438731 -2.9215269 0.19438731 0 0 Z M12.06640625 42.6328125 C7.51680013 48.14748658 8.7423387 55.26234151 8.69140625 62.0703125 C8.66240234 63.35873047 8.63339844 64.64714844 8.60351562 65.97460938 C8.59513672 67.21146484 8.58675781 68.44832031 8.578125 69.72265625 C8.56354248 70.85566162 8.54895996 71.98866699 8.53393555 73.15600586 C9.10528205 76.77492943 10.17331235 77.89106117 13.00390625 80.1328125 C18.12075523 82.69123699 25.48045654 81.90238405 31.00390625 81.1328125 C34.83364052 78.68990625 37.26904663 75.63081702 38.55786133 71.24975586 C40.50411531 62.01277268 40.03333303 50.63938015 36.00390625 42.1328125 C33.36497928 39.07339717 30.91279346 38.16986421 27.00390625 37.1328125 C20.96941694 37.1328125 16.67239626 38.712821 12.06640625 42.6328125 Z " transform="translate(478.99609375,39.8671875)" style="fill: rgb(237, 239, 236);"/>
  <path d="M0 0 C7.07212241 5.89343534 12.01226911 12.0534467 13.05712891 21.48486328 C13.66506511 32.36821476 12.99307306 41.55460618 5.9609375 50.36328125 C0.51715033 56.17730079 -4.50545716 58.41180834 -12.34375 58.69140625 C-13.90878975 58.71251977 -15.4739141 58.72800113 -17.0390625 58.73828125 C-17.81636719 58.75890625 -18.59367187 58.77953125 -19.39453125 58.80078125 C-27.72316646 58.85677207 -33.19092588 56.08123286 -39.3046875 50.44140625 C-45.39814605 44.04071449 -48.09790819 36.9946621 -48.4765625 28.23828125 C-48.14915055 17.08701535 -44.70905375 8.88735168 -36.7890625 1.17578125 C-26.08842238 -5.70320168 -10.8050309 -7.5479187 0 0 Z M-30.0390625 10.30078125 C-33.8547805 16.02435825 -34.52837397 21.16997887 -34.4765625 27.86328125 C-34.47092285 28.61697998 -34.4652832 29.37067871 -34.45947266 30.1472168 C-34.34101883 35.55445817 -33.95707138 39.74016615 -31.1640625 44.48828125 C-25.27816163 49.37232666 -19.60067064 50.17493671 -12.1640625 49.48828125 C-6.70609098 47.70394441 -3.73883421 44.49247465 -1.1640625 39.48828125 C-0.23985205 36.10290911 -0.23985205 36.10290911 -0.1640625 32.48828125 C-0.12539062 31.78703125 -0.08671875 31.08578125 -0.046875 30.36328125 C0.2122466 22.07139007 -1.07028565 14.19061922 -6.1640625 7.48828125 C-13.96792211 2.89103901 -23.79202186 3.25899875 -30.0390625 10.30078125 Z " transform="translate(1175.1640625,72.51171875)" style="fill: rgb(237, 239, 236);"/>
  <path d="M0 0 C5.24565619 5.28121996 9.13395906 10.03326992 9.11352539 17.6550293 C9.11344986 18.59577805 9.11337433 19.53652679 9.11329651 20.50578308 C9.10813522 21.51836685 9.10297394 22.53095062 9.09765625 23.57421875 C9.0962413 24.61318802 9.09482635 25.65215729 9.09336853 26.72261047 C9.08776656 30.04426948 9.07521372 33.36586133 9.0625 36.6875 C9.05748525 38.93815007 9.0529223 41.18880119 9.04882812 43.43945312 C9.03779649 48.95965837 9.02105643 54.47982439 9 60 C7.54207116 60.05399736 6.08357288 60.09279177 4.625 60.125 C3.81289063 60.14820313 3.00078125 60.17140625 2.1640625 60.1953125 C0 60 0 60 -2 58 C-2.625 55.375 -2.625 55.375 -3 53 C-3.47050781 53.42152344 -3.94101562 53.84304687 -4.42578125 54.27734375 C-5.04839844 54.82519531 -5.67101562 55.37304688 -6.3125 55.9375 C-6.92738281 56.48277344 -7.54226563 57.02804688 -8.17578125 57.58984375 C-12.20531044 60.70474747 -16.88736856 60.28900491 -21.75 60.375 C-22.92949219 60.43107422 -22.92949219 60.43107422 -24.1328125 60.48828125 C-29.37696593 60.56668221 -32.45021141 59.63085181 -36.60473633 56.41015625 C-39.98499497 52.99381786 -40.87802844 49.13840121 -41.375 44.5 C-40.78244264 38.96946463 -39.12432613 34.76920909 -35.1875 30.8125 C-27.04668273 24.32067557 -14.11088803 22.75339297 -4 23 C-4.255602 21.06043186 -4.53004646 19.12334011 -4.8125 17.1875 C-4.96332031 16.10855469 -5.11414063 15.02960938 -5.26953125 13.91796875 C-6.0268349 10.8928039 -6.51579229 9.80450923 -9 8 C-15.61807072 5.9318529 -20.85340346 8.23011653 -27 11 C-27.99 11.66 -28.98 12.32 -30 13 C-32.5625 12.8125 -32.5625 12.8125 -35 12 C-37 9 -37 9 -36.875 7.0625 C-35.27370651 3.28802249 -32.83091774 1.36479315 -29.1171875 -0.265625 C-19.56133257 -3.16692071 -9.11216756 -5.5195567 0 0 Z M-15.4375 33.25 C-16.73558594 33.48203125 -18.03367187 33.7140625 -19.37109375 33.953125 C-23.18928736 35.05460604 -25.22101198 36.1897874 -28 39 C-29.21605122 43.53992457 -29.27857412 45.9570825 -27 50 C-15.30403573 50.81682593 -15.30403573 50.81682593 -5 46 C-3.66098208 44.88873341 -3.66098208 44.88873341 -3.90234375 42.05859375 C-3.91394531 40.86363281 -3.92554688 39.66867188 -3.9375 38.4375 C-3.94652344 37.23996094 -3.95554687 36.04242188 -3.96484375 34.80859375 C-3.97644531 33.88175781 -3.98804688 32.95492187 -4 32 C-7.95413248 32 -11.57547661 32.51761238 -15.4375 33.25 Z " transform="translate(580,71)" style="fill: rgb(237, 239, 236);"/>
  <path d="M0 0 C4.77264161 4.32613668 9.52542012 9.73967129 10.26199341 16.35192871 C10.3465038 19.19502248 10.33713315 22.0231725 10.29296875 24.8671875 C10.28872391 25.90191193 10.28447906 26.93663635 10.28010559 28.00271606 C10.26336996 31.29374681 10.22572649 34.58415566 10.1875 37.875 C10.17244658 40.1119703 10.15875933 42.34895023 10.14648438 44.5859375 C10.11348306 50.05752973 10.06173541 55.52865957 10 61 C7.03 61 4.06 61 1 61 C0.01 58.69 -0.98 56.38 -2 54 C-2.81404297 54.63228516 -2.81404297 54.63228516 -3.64453125 55.27734375 C-4.35996094 55.82519531 -5.07539062 56.37304688 -5.8125 56.9375 C-6.52019531 57.48277344 -7.22789063 58.02804688 -7.95703125 58.58984375 C-13.7649647 62.59876148 -23.18942943 62.11448738 -30 61 C-34.48620211 58.80027383 -36.82038803 55.74582572 -39.5625 51.6875 C-40.4868423 46.00939731 -39.90937326 40.85372241 -37.375 35.6875 C-29.96900331 27.30703006 -19.89679661 24.63945782 -8.9609375 23.75390625 C-6.97226825 23.75074963 -4.98361794 23.858313 -3 24 C-3.14076315 22.0412957 -3.2877676 20.08303907 -3.4375 18.125 C-3.51871094 17.03445312 -3.59992188 15.94390625 -3.68359375 14.8203125 C-3.83001703 12.05271029 -3.83001703 12.05271029 -5 10 C-9.72513831 7.86243743 -12.9859242 7.8102193 -18 9 C-21.06311398 10.20732031 -24.02468178 11.59298036 -27 13 C-28.66194738 13.67834587 -30.32598903 14.35199575 -32 15 C-33.32 13.35 -34.64 11.7 -36 10 C-34.62471582 5.49906996 -33.04705465 3.42823279 -29 1 C-19.81699242 -2.17403807 -9.15206508 -4.14433136 0 0 Z M-13.9375 34.25 C-15.14277344 34.50265625 -16.34804688 34.7553125 -17.58984375 35.015625 C-21.55398574 36.15991341 -24.78620382 37.4551685 -27.375 40.75 C-28.29390721 44.05806597 -27.74940605 46.69012329 -27 50 C-24.08999203 51.45500399 -21.4910667 51.20897384 -18.25 51.25 C-16.43242188 51.28867188 -16.43242188 51.28867188 -14.578125 51.328125 C-9.76037347 50.88632246 -6.42329909 49.42329909 -3 46 C-2.75660449 43.10116917 -2.75660449 43.10116917 -2.875 39.875 C-2.89304687 38.77929688 -2.91109375 37.68359375 -2.9296875 36.5546875 C-2.95289063 35.71164063 -2.97609375 34.86859375 -3 34 C-6.87951798 32.56815795 -9.97149685 33.3865372 -13.9375 34.25 Z " transform="translate(1032,70)" style="fill: rgb(237, 239, 236);"/>
  <path d="M0 0 C5.79105246 5.43740041 8.59562931 11.45956953 9.17326355 19.37394714 C9.22976854 21.98085473 9.22524128 24.58016303 9.1953125 27.1875 C9.1924826 28.13061035 9.18965271 29.0737207 9.18673706 30.04541016 C9.17562442 33.03040756 9.15053672 36.01509469 9.125 39 C9.11495866 41.03515189 9.10583484 43.07030852 9.09765625 45.10546875 C9.07571435 50.07043037 9.04124673 55.03516275 9 60 C6.03 60 3.06 60 0 60 C-0.99 58.02 -1.98 56.04 -3 54 C-3.54269531 54.34933594 -4.08539062 54.69867188 -4.64453125 55.05859375 C-5.35996094 55.51363281 -6.07539062 55.96867187 -6.8125 56.4375 C-7.87404297 57.11619141 -7.87404297 57.11619141 -8.95703125 57.80859375 C-13.15567562 60.25713396 -17.15578782 60.21598766 -21.875 60.25 C-22.58269531 60.270625 -23.29039062 60.29125 -24.01953125 60.3125 C-29.64699996 60.35441783 -32.51641311 58.9825596 -36.80078125 55.5625 C-40.20328165 52.04570372 -41.4419048 49.43678908 -41.625 44.5 C-41.234567 38.03123502 -39.46289677 34.21029198 -34.5625 29.8125 C-24.86863099 24.88053155 -14.7846626 23 -4 23 C-4.08332042 15.83893128 -4.08332042 15.83893128 -6.6875 9.375 C-10.41389283 7.15930697 -13.14100943 6.60910471 -17.43359375 7.51171875 C-21.22317273 8.57595415 -24.4585166 9.663077 -27.8125 11.75 C-30 13 -30 13 -32.625 13 C-35.75743861 11.68107848 -36.54047893 9.99585903 -38 7 C-29.54627309 -3.14447229 -11.61682207 -6.79799218 0 0 Z M-15.4375 33.1875 C-17.38462891 33.51814453 -17.38462891 33.51814453 -19.37109375 33.85546875 C-23.51857554 35.16355504 -25.29189176 36.64153932 -28 40 C-29.0268055 43.66716248 -29.20806522 45.37580435 -28 49 C-25.08999203 50.45500399 -22.4910667 50.20897384 -19.25 50.25 C-17.43242188 50.28867188 -17.43242188 50.28867188 -15.578125 50.328125 C-10.76037347 49.88632246 -7.42329909 48.42329909 -4 45 C-3.75639927 41.87185486 -3.75639927 41.87185486 -3.875 38.375 C-3.89304687 37.18648437 -3.91109375 35.99796875 -3.9296875 34.7734375 C-3.95289063 33.85820313 -3.97609375 32.94296875 -4 32 C-7.94287635 32 -11.57973212 32.48231662 -15.4375 33.1875 Z " transform="translate(821,71)" style="fill: rgb(237, 239, 236);"/>
  <path d="M0 0 C3.0625 0.25 3.0625 0.25 6.0625 2.25 C7.25 4.875 7.25 4.875 8.0625 7.25 C8.57039062 6.91226563 9.07828125 6.57453125 9.6015625 6.2265625 C17.08369952 1.37858608 23.36045578 -0.81308288 32.328125 0.609375 C38.19495134 2.08605918 41.07221618 4.92962157 44.65234375 9.703125 C48.23449334 16.17282453 48.33831781 22.33428301 48.2578125 29.55859375 C48.2549826 30.52531509 48.25215271 31.49203644 48.24923706 32.48805237 C48.23810407 35.55466452 48.21301224 38.62097715 48.1875 41.6875 C48.17746131 43.77538639 48.16833701 45.86327738 48.16015625 47.95117188 C48.13818727 53.05089544 48.10370507 58.15039705 48.0625 63.25 C44.1025 63.25 40.1425 63.25 36.0625 63.25 C34.39128649 57.39741695 33.75882797 52.14810151 33.71875 46.078125 C33.7041272 45.23328552 33.68950439 44.38844604 33.67443848 43.51800537 C33.61265763 39.9371178 33.57247037 36.35607116 33.53076172 32.77490234 C33.49702324 30.1466275 33.45194496 27.51871475 33.40625 24.890625 C33.4009729 24.08328918 33.3956958 23.27595337 33.39025879 22.44415283 C33.38772036 16.99385499 33.38772036 16.99385499 31.0625 12.25 C25.38713387 9.95993998 21.78709618 10.03726972 16.11328125 12.26171875 C13.33982579 13.59826014 11.20800631 15.03744662 9.0625 17.25 C8.14514583 20.03661278 7.918768 22.6384319 7.85717773 25.55957031 C7.83723251 26.40013977 7.81728729 27.24070923 7.79673767 28.10675049 C7.77166893 29.45383087 7.77166893 29.45383087 7.74609375 30.828125 C7.72531265 31.7546991 7.70453156 32.68127319 7.68312073 33.63592529 C7.61783039 36.59054272 7.55883569 39.54524768 7.5 42.5 C7.45679527 44.50521732 7.41318035 46.51042585 7.36914062 48.515625 C7.26217001 53.42699404 7.16084482 58.33845097 7.0625 63.25 C5.25007948 63.27687279 3.43754767 63.29633715 1.625 63.3125 C0.61566406 63.32410156 -0.39367187 63.33570313 -1.43359375 63.34765625 C-3.9375 63.25 -3.9375 63.25 -4.9375 62.25 C-5.04184618 60.38909424 -5.07604637 58.52421724 -5.08276367 56.66040039 C-5.08914352 55.46568619 -5.09552338 54.27097198 -5.10209656 53.04005432 C-5.10320938 51.73906296 -5.1043222 50.43807159 -5.10546875 49.09765625 C-5.10867976 47.75866154 -5.11204371 46.41966718 -5.11555481 45.08067322 C-5.12155208 42.2703266 -5.12339411 39.46001077 -5.12280273 36.6496582 C-5.12270109 33.0435364 -5.13635245 29.43761142 -5.15357494 25.83153629 C-5.16467859 23.06492705 -5.16672245 20.29836562 -5.16619301 17.53173637 C-5.1679519 15.55410686 -5.17880352 13.57649226 -5.18974304 11.59889221 C-5.18666641 10.40102585 -5.18358978 9.20315948 -5.18041992 7.96899414 C-5.18184494 6.91055801 -5.18326996 5.85212189 -5.18473816 4.76161194 C-4.81036996 0.9585273 -3.74141648 0.31841842 0 0 Z " transform="translate(607.9375,67.75)" style="fill: rgb(237, 239, 236);"/>
  <path d="M0 0 C3.625 0.1875 3.625 0.1875 6.625 2.1875 C6.625 3.5075 6.625 4.8275 6.625 6.1875 C9.55696537 5.56062099 11.92746286 4.60676753 14.5625 3.1875 C21.26062896 -0.22335534 27.80761669 -0.75384659 35.125 1.1875 C40.33814576 3.07670838 43.77316059 6.47920004 46.625 11.1875 C48.75442742 17.10032127 48.88831212 22.46866364 48.8203125 28.71484375 C48.8174826 29.70376114 48.81465271 30.69267853 48.81173706 31.71156311 C48.80060142 34.84950195 48.77550903 37.98714839 48.75 41.125 C48.73996165 43.26106357 48.7308373 45.39713164 48.72265625 47.53320312 C48.70068375 52.7514136 48.66619964 57.96940734 48.625 63.1875 C44.665 63.1875 40.705 63.1875 36.625 63.1875 C35.48842382 60.91434764 35.48940958 59.63346409 35.46728516 57.10839844 C35.45702301 56.26702332 35.44676086 55.42564819 35.43618774 54.55877686 C35.42888641 53.64734924 35.42158508 52.73592163 35.4140625 51.796875 C35.38598609 49.87108536 35.35732157 47.94530423 35.328125 46.01953125 C35.28691521 42.98030912 35.25003252 39.94124434 35.22363281 36.90185547 C35.19595784 33.97069372 35.15007705 31.04025614 35.1015625 28.109375 C35.09830963 27.20604431 35.09505676 26.30271362 35.09170532 25.37200928 C34.99303966 20.28589916 34.5923863 16.52031096 31.625 12.1875 C25.98033605 9.7544552 22.29650491 9.98519206 16.609375 12.19140625 C13.28400236 13.86063858 11.27498316 15.88753368 9.625 19.1875 C9.50752522 20.60632881 9.44814572 22.03021414 9.41967773 23.45361328 C9.39973251 24.33437531 9.37978729 25.21513733 9.35923767 26.12258911 C9.33416893 27.55077469 9.33416893 27.55077469 9.30859375 29.0078125 C9.28781265 29.98160858 9.26703156 30.95540466 9.24562073 31.95870972 C9.18011402 35.07656647 9.12123503 38.19450903 9.0625 41.3125 C9.01931585 43.42318604 8.9757016 45.53386333 8.93164062 47.64453125 C8.82443147 52.82543236 8.72316717 58.00641999 8.625 63.1875 C4.665 63.1875 0.705 63.1875 -3.375 63.1875 C-3.52802188 55.12106066 -3.67678532 47.05457775 -3.8179636 38.98792362 C-3.88368398 35.24262587 -3.95130178 31.49738205 -4.02319336 27.75219727 C-4.09244888 24.14075437 -4.156802 20.52925491 -4.21769524 16.91766167 C-4.24184974 15.5368677 -4.26779813 14.15610395 -4.29553413 12.77537727 C-4.33395431 10.84781648 -4.36551753 8.92012264 -4.39672852 6.99243164 C-4.41671402 5.89322891 -4.43669952 4.79402618 -4.45729065 3.66151428 C-4.33005618 -0.16370631 -3.937976 0.21877644 0 0 Z " transform="translate(1202.375,67.8125)" style="fill: rgb(237, 239, 236);"/>
  <path d="M 0 0 C 1.397 0.033 2.793 0.103 4.188 0.188 C 4.965 0.222 5.742 0.257 6.543 0.293 C 12.413 1.982 15.575 8.113 18.813 12.938 C 24.312 20.859 30.2 25.357 38.338 29.615 C 42.308 32.166 41.576 31.034 41.576 31.714 C 42.29 31.848 40.428 31.268 41.164 31.406 C 44.861 32.18 48.458 33.236 52.086 34.281 C 70.734 38.881 88.636 35.544 105 26 C 109.036 23.355 112.922 20.519 116.816 17.672 C 121.773 14.406 126.299 14.587 132 15 C 122.65 32.952 105.901 41.808 87.332 47.871 C 70.129 52.164 49.627 48.653 34 41 C 19.245 32.139 5.73 18.984 -1 3 C -0.67 2.01 -0.34 1.02 0 0 Z" transform="translate(68,111)" style="fill: rgb(237, 239, 236);"/>
  <path d="M 0 0 C 1.547 0.928 1.547 0.928 3.125 1.875 C 13.565 9.592 21.833 22.265 27 34 C 23.271 34.353 19.719 34.504 16 34 C 13.063 31.375 13.063 31.375 11 28 C 10.237 26.928 9.474 25.855 8.688 24.75 C 6.667 22.266 8.841 24.693 6.076 21.794 C 4.053 19.454 8.852 24.875 5.248 20.901 C 1.343 16.832 4.981 20.569 0.887 16.578 C -8.373 7.551 -23.676 0.002 -36.191 -1.82 C -56.959 -3.149 -74.153 5.374 -90.523 17.215 C -93.9 19.649 -95.524 20.121 -99.625 20.063 C -100.851 20.049 -100.851 20.049 -102.102 20.035 C -102.728 20.024 -103.355 20.012 -104 20 C -104.495 18.515 -104.495 18.515 -105 17 C -77.968 -13.548 -35.48 -25.797 0 0 Z M -96 16 C -95.34 16.66 -94.68 17.32 -94 18 C -94 17.34 -94 16.68 -94 16 C -94.66 16 -95.32 16 -96 16 Z" transform="translate(181,25)" style="fill: rgb(237, 239, 236);"/>
  <path d="M0 0 C0.78246094 -0.02578125 1.56492187 -0.0515625 2.37109375 -0.078125 C5.17572483 0.34181976 5.76549367 1.08158127 7.5625 3.25 C8.72583008 5.70751953 8.72583008 5.70751953 9.83203125 8.6328125 C10.24340332 9.71062988 10.65477539 10.78844727 11.07861328 11.89892578 C11.5064209 13.04603027 11.93422852 14.19313477 12.375 15.375 C12.81569824 16.5388623 13.25639648 17.70272461 13.71044922 18.90185547 C17.12847609 27.97108691 20.42116862 37.08139865 23.5625 46.25 C26.76167067 38.82115657 29.70269607 31.31457765 32.5625 23.75 C37.11595954 11.74203497 37.11595954 11.74203497 39.4375 6 C39.80617188 5.08734375 40.17484375 4.1746875 40.5546875 3.234375 C41.5625 1.25 41.5625 1.25 43.5625 0.25 C45.08095202 0.15527088 46.60360384 0.1201159 48.125 0.125 C49.33349609 0.12113281 49.33349609 0.12113281 50.56640625 0.1171875 C52.5625 0.25 52.5625 0.25 53.5625 1.25 C53.12437664 6.05751584 52.04252086 10.06081713 50.1875 14.5 C49.64965552 15.80335073 49.1119033 17.10673954 48.57421875 18.41015625 C48.26403809 19.15410645 47.95385742 19.89805664 47.63427734 20.66455078 C46.37315858 23.70674845 45.13312941 26.75715808 43.89453125 29.80859375 C41.12675519 36.62633946 38.35410613 43.44197181 35.5625 50.25 C35.09473145 51.3942041 34.62696289 52.5384082 34.14501953 53.71728516 C33.69626465 54.80702637 33.24750977 55.89676758 32.78515625 57.01953125 C32.38176025 58.00155518 31.97836426 58.9835791 31.56274414 59.99536133 C30.5625 62.25 30.5625 62.25 29.5625 63.25 C27.41796875 63.48828125 27.41796875 63.48828125 24.75 63.5625 C23.87730469 63.59988281 23.00460937 63.63726562 22.10546875 63.67578125 C18.7069156 63.10674547 17.78626948 61.85032959 15.5625 59.25 C14.22558594 56.54296875 14.22558594 56.54296875 13.046875 53.4375 C12.60408203 52.28878418 12.16128906 51.14006836 11.70507812 49.95654297 C11.24552734 48.73338379 10.78597656 47.51022461 10.3125 46.25 C9.82858406 44.98411284 9.34354859 43.71865311 8.85742188 42.45361328 C8.12354883 40.54321796 7.39052255 38.63254372 6.66162109 36.72024536 C4.24364653 30.38015085 1.69860819 24.09336108 -0.88769531 17.8203125 C-3.09014624 12.39000727 -4.83534373 6.88542328 -6.4375 1.25 C-4.11063547 0.08656773 -2.59028587 0.05104012 0 0 Z " transform="translate(841.4375,67.75)" style="fill: rgb(237, 239, 236);"/>
  <path d="M0 0 C0.99 0.99 0.99 0.99 2 2 C1.45652174 8.08695652 1.45652174 8.08695652 0 11 C-1.57587891 10.82210937 -1.57587891 10.82210937 -3.18359375 10.640625 C-17.02306277 9.27400838 -23.46684069 12.68250558 -34.40454102 20.91870117 C-48.44311874 31.42593993 -61.82251138 33.20097531 -79 32 C-92.57678122 29.95868779 -104.14660952 21.18357969 -113 11 C-113.58523437 10.34644531 -114.17046875 9.69289063 -114.7734375 9.01953125 C-116 7 -116 7 -115.6875 4.75 C-115.3471875 3.88375 -115.3471875 3.88375 -115 3 C-111.88466608 1.99101478 -109.26071884 1.54547556 -106 2 C-102.55122817 4.59221412 -99.85851412 7.78485744 -97 11 C-88.11122393 18.47465261 -74.36696466 20.73476894 -63 19.8125 C-51.56535361 17.9067256 -42.80922081 11.94110666 -33.59375 5.25390625 C-23.42320053 -1.92635843 -11.88625254 -4.4573447 0 0 Z " transform="translate(206,108)" style="fill: rgb(237, 239, 236);"/>
  <path d="M0 0 C0.77085937 0.44988281 1.54171875 0.89976563 2.3359375 1.36328125 C6.52558857 3.8550211 6.52558857 3.8550211 8 5 C8 5.66 8 6.32 8 7 C8.66 7 9.32 7 10 7 C11.62356346 8.96937661 13.13559566 10.93345148 14.625 13 C15.04523438 13.57234375 15.46546875 14.1446875 15.8984375 14.734375 C16.93805801 16.15203933 17.96977591 17.57549262 19 19 C15.79619983 21.13586678 14.98060033 21.23132175 11.3125 21.125 C10.50425781 21.10695313 9.69601563 21.08890625 8.86328125 21.0703125 C8.24839844 21.04710938 7.63351563 21.02390625 7 21 C7 20.34 7 19.68 7 19 C5.515 18.505 5.515 18.505 4 18 C2.9171875 16.88625 2.9171875 16.88625 1.8125 15.75 C-6.20279137 7.91282622 -16.55297348 4.03894888 -27.734375 3.98046875 C-29.07327382 4.04216311 -30.41184879 4.11129255 -31.75 4.1875 C-33.72226563 4.27064453 -33.72226563 4.27064453 -35.734375 4.35546875 C-45.19767528 5.41449423 -52.327282 10.30208817 -59.625 16.0625 C-67.88387666 22.55832101 -74.38190117 26.5614702 -85.0625 26.375 C-85.73087891 26.38660156 -86.39925781 26.39820313 -87.08789062 26.41015625 C-92.13736299 26.38071326 -95.55983456 25.18255206 -100 23 C-99.21681311 19.08406554 -97.60820142 15.63593365 -96 12 C-95.43152344 12.144375 -94.86304687 12.28875 -94.27734375 12.4375 C-86.38336651 14.3352174 -80.86091226 15.0332381 -73.71484375 10.7578125 C-70.30152352 8.54774904 -66.93309615 6.27447073 -63.5625 4 C-43.56234361 -9.46883597 -21.39456738 -13.26463177 0 0 Z " transform="translate(166,39)" style="fill: rgb(237, 239, 236);"/>
  <path d="M 0 0 C 3.5 0.125 3.5 0.125 4.5 1.125 C 4.644 2.527 4.727 3.935 4.781 5.344 C 4.819 6.193 4.856 7.043 4.895 7.918 C 4.965 9.723 5.035 11.527 5.105 13.332 C 5.143 14.182 5.18 15.031 5.219 15.906 C 5.249 16.691 5.279 17.475 5.311 18.283 C 5.306 20.141 5.306 20.141 6.5 21.125 C 9.004 21.336 11.491 21.501 14 21.625 C 21.365 21.99 21.365 21.99 22.5 23.125 C 22.541 25.458 22.542 27.792 22.5 30.125 C 21.357 30.186 20.213 30.246 19.035 30.309 C 17.544 30.393 16.053 30.478 14.563 30.563 C 13.808 30.602 13.053 30.641 12.275 30.682 C 8.581 30.565 8.581 30.565 5.5 32.125 C 5.411 35.228 5.385 38.308 5.402 41.41 C 5.404 42.806 5.404 42.806 5.407 44.231 C 5.412 47.216 5.425 50.202 5.438 53.188 C 5.443 55.206 5.447 57.225 5.451 59.244 C 5.462 64.204 5.479 69.165 5.5 74.125 C 6.604 73.891 6.604 73.891 7.73 73.652 C 8.706 73.458 9.682 73.263 10.688 73.063 C 11.65 72.865 12.613 72.668 13.605 72.465 C 16.555 72.119 18.656 72.322 21.5 73.125 C 22.5 74.125 22.5 74.125 22.875 77.5 C 22.5 81.125 22.5 81.125 20.477 82.828 C 16.767 84.444 13.472 84.566 9.5 84.5 C 8.452 84.517 8.452 84.517 7.383 84.535 C 2.901 84.51 0.083 83.824 -3.5 81.125 C -8.901 75.524 -8.785 67.988 -8.695 60.691 C -8.692 59.813 -8.69 58.936 -8.687 58.031 C -8.676 55.25 -8.651 52.469 -8.625 49.688 C -8.615 47.792 -8.606 45.897 -8.598 44.002 C -8.576 39.376 -8.541 34.751 -8.5 30.125 C -11.47 30.125 -14.44 30.125 -17.5 30.125 C -18.625 24.375 -18.625 24.375 -17.5 22.125 C -14.2 22.125 -10.9 22.125 -7.5 22.125 C -7.451 21.028 -7.402 19.931 -7.352 18.801 C -7.276 17.346 -7.201 15.892 -7.125 14.438 C -7.079 13.356 -7.079 13.356 -7.031 12.252 C -6.372 0.228 -6.372 0.228 0 0 Z M -4.241 65.125 C -4.241 66.775 -5.079 68.518 -5.079 70.218 C -4.749 70.218 -6.84 70.125 -6.5 70.125 C -6.5 68.475 -6.5 66.825 -6.5 65.125 C -6.83 65.125 -3.901 65.125 -4.241 65.125 Z" transform="translate(1067.5,46.875)" style="fill: rgb(237, 239, 236);"/>
  <path d="M 0 0 C 2.285 1.535 2.285 1.535 3.938 2.938 C 6.001 4.905 3.961 2.906 4.832 3.792 C 5.973 4.961 3.928 2.92 5.938 4.938 C 5.938 5.598 5.938 6.258 5.938 6.938 C 0.682 9.619 -2.145 10.342 -8.062 8.938 C -9.709 8.398 -11.355 7.856 -13 7.313 C -17.784 5.848 -21.242 5.637 -26.062 6.938 C -26.762 7.118 -27.462 7.298 -28.184 7.484 C -34.391 9.536 -39.176 13.102 -44.375 16.938 C -57.787 26.65 -71.632 28.977 -88.062 26.938 C -90.878 26.133 -93.375 25.125 -96.062 23.938 C -96.09 22.479 -96.109 21.021 -96.125 19.563 C -96.137 18.75 -96.148 17.938 -96.16 17.102 C -96.062 14.938 -96.062 14.938 -95.062 12.938 C -93.958 13.097 -92.853 13.257 -91.715 13.422 C -86.683 14.046 -81.691 14.158 -76.625 14.188 C -75.735 14.208 -74.845 14.229 -73.928 14.25 C -64.38 14.306 -57.445 11.808 -49.937 6 C -34.369 -5.774 -17.684 -11.248 0 0 Z" transform="translate(158.0625,57.0625)" style="fill: rgb(237, 239, 236);"/>
  <path d="M0 0 C1.25683594 -0.01417969 2.51367188 -0.02835937 3.80859375 -0.04296875 C9.0593755 0.27939974 13.17300758 1.26117172 17.5625 4.1875 C17.85546875 6.3515625 17.85546875 6.3515625 17.75 8.8125 C17.70939453 10.03839844 17.70939453 10.03839844 17.66796875 11.2890625 C17.63316406 11.91554688 17.59835938 12.54203125 17.5625 13.1875 C15.5625 14.1875 15.5625 14.1875 11.875 13.25 C-0.68390811 10.34713842 -12.28345421 11.70157299 -23.36279297 18.34130859 C-28.8832063 21.8162296 -34.19204134 25.5885046 -39.50390625 29.37109375 C-47.69472208 34.4426375 -57.0078011 34.1458562 -66.3203125 32.7578125 C-72.66808864 31.14599474 -77.81752979 27.81799406 -82.4375 23.1875 C-82.7675 22.1975 -83.0975 21.2075 -83.4375 20.1875 C-80.16444063 18.23925038 -78.16595385 17.14379277 -74.3125 17.375 C-71.4375 18.1875 -71.4375 18.1875 -69.80078125 19.2109375 C-63.30531892 21.89501284 -53.44716952 21.34912485 -46.78125 19.41796875 C-44.49345167 18.1728785 -42.51364875 16.76383516 -40.4375 15.1875 C-38.01928438 13.47151096 -35.57612857 11.79356139 -33.125 10.125 C-32.48159668 9.68502686 -31.83819336 9.24505371 -31.17529297 8.79174805 C-21.60430917 2.42192726 -11.42114096 0.05845006 0 0 Z " transform="translate(194.4375,86.8125)" style="fill: rgb(237, 239, 236);"/>
  <path d="M 0 0 C 3.732 0.816 7.188 1.226 11.008 1.25 C 11.932 1.257 12.856 1.264 13.809 1.271 C 15.694 1.27 17.58 1.249 19.465 1.209 C 26.038 1.306 29.325 2.776 34.035 7.384 C 37.162 11.008 36.95 14.557 36.914 19.188 C 36.072 25.077 32.149 28.516 28 32.457 C 21.404 36.744 14.673 36.417 7.063 36.395 C 5.956 36.411 4.849 36.427 3.709 36.443 C -5.003 36.449 -10.942 35.242 -17.5 29.082 C -19.701 27.196 -17.694 29.208 -19.5 27.082 C -20.658 23.609 -19.84 18.402 -19.5 19.082 C -16.2 19.082 -12.9 19.082 -9.5 19.082 C -8.84 20.402 -8.18 21.722 -7.5 23.082 C -0.612 27.636 8.778 26.244 16.5 25.082 C 19.612 24.063 21.181 23.401 23.5 21.082 C 24.512 18.906 25.086 17.964 25.044 15.964 C 25.374 15.304 24.16 13.762 24.5 13.082 C 20.66 12.265 16.969 12.003 13.059 11.941 C 12.063 11.922 11.067 11.903 10.041 11.883 C 7.968 11.849 5.895 11.831 3.822 11.828 C -3.716 11.642 -3.716 11.642 -7.715 8.785 C -9.5 6.082 -9.5 6.082 -9.5 2.082 C -6.309 -1.109 -4.115 -1.024 0 0 Z" transform="translate(949.5,116.91796875)" style="fill: rgb(237, 239, 236);"/>
  <path d="M0 0 C-5.2363001 12.31908497 -23.73689075 22.38774164 -35.5 27.5625 C-49.58443184 33.11332931 -65.20053186 35.15540622 -80 31 C-81.8359375 29.68359375 -81.8359375 29.68359375 -83 28 C-83.45086345 25.24114506 -83.18192449 22.81982959 -83 20 C-82 19 -82 19 -78.4375 18.875 C-74.9234376 18.91251668 -71.52481462 19.31085892 -68.0390625 19.76171875 C-51.85723528 21.65269856 -36.76169214 14.93907706 -23.75 5.875 C-15.05470174 -0.14815511 -10.59060495 -2.85131672 0 0 Z " transform="translate(145,72)" style="fill: rgb(237, 239, 236);"/>
  <path d="M0 0 C0.66 0.33 1.32 0.66 2 1 C2.625 4.0625 2.625 4.0625 3 7 C3.50789063 6.59007813 4.01578125 6.18015625 4.5390625 5.7578125 C10.87969891 0.7945428 15.73991389 -1.59000615 24 -1 C27.4375 0 27.4375 0 30 1 C29.67 4.3 29.34 7.6 29 11 C28.29875 10.89300781 27.5975 10.78601563 26.875 10.67578125 C20.69439847 9.8948085 15.38447623 9.45691305 10 13 C6.63530185 17.14116696 4.91210199 20.69480999 4.79467773 26.01245117 C4.77473251 26.81305466 4.75478729 27.61365814 4.73423767 28.43852234 C4.70916893 29.72772331 4.70916893 29.72772331 4.68359375 31.04296875 C4.66281265 31.9265657 4.64203156 32.81016266 4.62062073 33.72053528 C4.55524246 36.54277785 4.49629472 39.36511335 4.4375 42.1875 C4.39430363 44.10092106 4.35068898 46.01433273 4.30664062 47.92773438 C4.19957305 52.61839437 4.09827248 57.30914783 4 62 C0.37 62 -3.26 62 -7 62 C-8.34049527 59.31900947 -8.1198052 57.26688794 -8.11352539 54.26513672 C-8.11344986 53.06404266 -8.11337433 51.86294861 -8.11329651 50.62545776 C-8.10813522 49.32335358 -8.10297394 48.02124939 -8.09765625 46.6796875 C-8.09579138 45.33733167 -8.0943678 43.99497516 -8.09336853 42.65261841 C-8.08954878 39.11804325 -8.07972312 35.58350913 -8.06866455 32.0489502 C-8.05843878 28.44279536 -8.05386841 24.8366339 -8.04882812 21.23046875 C-8.03810038 14.15362904 -8.02103045 7.0768172 -8 0 C-5.11541362 -1.44229319 -3.09360585 -0.64450122 0 0 Z " transform="translate(436,69)" style="fill: rgb(237, 239, 236);"/>
  <path d="M0 0 C0.29296875 2.6015625 0.29296875 2.6015625 0.1875 5.625 C0.14689453 7.12933594 0.14689453 7.12933594 0.10546875 8.6640625 C0.07066406 9.43492188 0.03585938 10.20578125 0 11 C-1.48886719 10.76603516 -1.48886719 10.76603516 -3.0078125 10.52734375 C-21.73001457 7.76253995 -39.28060581 9.66389842 -55 21 C-55.9075 21.78632812 -56.815 22.57265625 -57.75 23.3828125 C-65.1905364 29.69539524 -69.70838051 30.91302412 -79.140625 30.31640625 C-80.08421875 30.21199219 -81.0278125 30.10757813 -82 30 C-82 27 -82 27 -80.6015625 25.4921875 C-79.62316406 24.69167969 -79.62316406 24.69167969 -78.625 23.875 C-75.32735522 21.1250206 -72.1463225 18.29728096 -69 15.375 C-54.36985703 2.29419138 -18.68382671 -12.45588447 0 0 Z " transform="translate(212,70)" style="fill: rgb(237, 239, 236);"/>
  <path d="M0 0 C1.97265625 0.265625 1.97265625 0.265625 4.97265625 2.265625 C5.3334198 4.82192993 5.3334198 4.82192993 5.31323242 8.09228516 C5.31300583 9.31339996 5.31277924 10.53451477 5.31254578 11.79263306 C5.29722477 13.12998823 5.28157676 14.4673397 5.265625 15.8046875 C5.26003047 17.16945938 5.25575969 18.53423728 5.25276184 19.89901733 C5.24130165 23.49292607 5.21182496 27.08647167 5.1786499 30.68023682 C5.14797396 34.3466704 5.13426184 38.0131626 5.11914062 41.6796875 C5.08695589 48.87516564 5.03574597 56.07034446 4.97265625 63.265625 C2.99356227 63.29249053 1.01436654 63.31195875 -0.96484375 63.328125 C-2.06699219 63.33972656 -3.16914062 63.35132813 -4.3046875 63.36328125 C-7.02734375 63.265625 -7.02734375 63.265625 -8.02734375 62.265625 C-8.13168993 60.40471924 -8.16589012 58.53984224 -8.17260742 56.67602539 C-8.17898727 55.48131119 -8.18536713 54.28659698 -8.19194031 53.05567932 C-8.19305313 51.75468796 -8.19416595 50.45369659 -8.1953125 49.11328125 C-8.19852351 47.77428654 -8.20188746 46.43529218 -8.20539856 45.09629822 C-8.21139583 42.2859516 -8.21323786 39.47563577 -8.21264648 36.6652832 C-8.21254484 33.0591614 -8.2261962 29.45323642 -8.24341869 25.84716129 C-8.25452234 23.08055205 -8.2565662 20.31399062 -8.25603676 17.54736137 C-8.25779565 15.56973186 -8.26864727 13.59211726 -8.27958679 11.61451721 C-8.27651016 10.41665085 -8.27343353 9.21878448 -8.27026367 7.98461914 C-8.27168869 6.92618301 -8.27311371 5.86774689 -8.27458191 4.77723694 C-7.75657815 -0.48499452 -4.54580425 0.03398732 0 0 Z " transform="translate(1110.02734375,67.734375)" style="fill: rgb(237, 239, 236);"/>
  <path d="M0 0 C0 20.13 0 40.26 0 61 C-3.96 61 -7.92 61 -12 61 C-13.34049527 58.31900947 -13.1198052 56.26688794 -13.11352539 53.26513672 C-13.11344986 52.06404266 -13.11337433 50.86294861 -13.11329651 49.62545776 C-13.10813522 48.32335358 -13.10297394 47.02124939 -13.09765625 45.6796875 C-13.09579138 44.33733167 -13.0943678 42.99497516 -13.09336853 41.65261841 C-13.08954878 38.11804325 -13.07972312 34.58350913 -13.06866455 31.0489502 C-13.05843878 27.44279536 -13.05386841 23.8366339 -13.04882812 20.23046875 C-13.03810038 13.15362904 -13.02103045 6.0768172 -13 -1 C-11.58566794 -1.2236337 -10.16832382 -1.42826476 -8.75 -1.625 C-7.56664062 -1.79902344 -7.56664062 -1.79902344 -6.359375 -1.9765625 C-4 -2 -4 -2 0 0 Z " transform="translate(918,70)" style="fill: rgb(237, 239, 236);"/>
  <path d="M 0 0 C 1.397 0.033 2.793 0.103 4.188 0.188 C 4.965 0.222 5.742 0.257 6.543 0.293 C 12.413 1.982 15.575 8.113 18.813 12.938 C 24.312 20.859 29.126 26.158 38.21 29.564 C 38.21 30.224 39 30.32 39 31 C 40.32 31.33 41.64 31.66 43 32 C 43.062 32.619 43.124 33.238 43.188 33.875 C 43.456 34.576 43.724 35.278 44 36 C 45.65 36.707 47.321 37.366 49 38 C 53.06 40.946 55.603 43.111 57 48 C 36.935 44.965 20.552 33.781 7.762 18.289 C 4.296 13.466 1.305 8.476 -1 3 C -0.67 2.01 -0.34 1.02 0 0 Z" transform="translate(68,111)" style="fill: rgb(237, 239, 236);"/>
  <path d="M 0 0 C 0.755 0.423 1.511 0.846 2.289 1.281 C 4.021 2.293 5.706 3.387 7.375 4.5 C 7.992 4.992 8.043 4.991 8.529 5.596 C 9.058 6.12 8.938 5.958 9.375 6.5 C 10.999 8.469 12.511 10.433 14 12.5 C 14.42 13.072 14.84 13.645 15.273 14.234 C 16.313 15.652 17.345 17.075 18.375 18.5 C 15.171 20.636 14.356 20.731 10.688 20.625 C 9.879 20.607 9.071 20.589 8.238 20.57 C 7.623 20.547 7.009 20.524 6.375 20.5 C 3.395 17.479 6.422 20.612 5.138 19.313 C 3.363 17.512 6.092 20.454 3.375 17.5 C 2.674 16.738 1.931 16.015 1.188 15.25 C -7.51 6.746 -17.928 4.358 -29.625 2.5 C -21.628 -6.031 -9.285 -5.233 0 0 Z" transform="translate(166.625,39.5)" style="fill: rgb(237, 239, 236);"/>
  <path d="M0 0 C2.62696231 0.44879766 5.25116893 0.90854114 7.875 1.375 C8.99455078 1.56449219 8.99455078 1.56449219 10.13671875 1.7578125 C15.7734375 2.7734375 15.7734375 2.7734375 18 5 C20.02213278 5.61056087 22.06827978 6.14363995 24.125 6.625 C25.22070312 6.88539062 26.31640625 7.14578125 27.4453125 7.4140625 C28.70988281 7.70410156 28.70988281 7.70410156 30 8 C24.12452421 13.18424335 18.77117746 14.34896489 11.0625 14.3125 C10.04639648 14.33666992 10.04639648 14.33666992 9.00976562 14.36132812 C3.89427367 14.36623272 0.49100716 13.21915478 -4 11 C-3.220224 7.10112001 -1.58067118 3.63172977 0 0 Z " transform="translate(70,51)" style="fill: rgb(237, 239, 236);"/>
  <path d="M 0 0 C 2.352 0.599 4.686 1.269 7 2 C 8.327 4.654 7.746 5.645 6.875 8.438 C 5.707 11.815 5.235 12.82 2.313 15.063 C 1.549 15.372 0.786 15.681 0 16 C 1.372 18.954 2.989 21.44 5 24 C 4.546 24.392 4.093 24.784 3.625 25.188 C 1.724 27.308 0.938 29.33 0 32 C -3.3 32 -6.6 32 -10 32 C -6.94 24.681 -10.019 31.904 -6.937 24.563 C -5.968 23.717 -4.999 22.871 -4 22 C -3.937 19.04 -3.937 19.04 -5 16 C -6.326 9.701 -6.326 9.701 -4.75 6.313 C -4.172 5.549 -3.595 4.786 -3 4 C -2.443 3.237 -1.886 2.474 -1.312 1.688 C -0.663 0.852 -0.663 0.852 0 0 Z" transform="translate(940,104)" style="fill: rgb(237, 239, 236);"/>
  <path d="M0 0 C-2.46717876 5.97029999 -8.30438522 11.07153435 -13.96875 14.02734375 C-17.89967807 15.25129181 -21.9236368 15.16638217 -26 15 C-26.103125 14.360625 -26.20625 13.72125 -26.3125 13.0625 C-26.539375 12.381875 -26.76625 11.70125 -27 11 C-27.99 10.67 -28.98 10.34 -30 10 C-27.60794581 8.36919073 -25.21167218 6.74527814 -22.8125 5.125 C-22.13896484 4.66480469 -21.46542969 4.20460938 -20.77148438 3.73046875 C-13.1713702 -1.38570567 -8.96890523 -2.41470525 0 0 Z " transform="translate(145,72)" style="fill: rgb(237, 239, 236);"/>
  <path d="M0 0 C2.81972931 2.36493426 2.97850831 3.8280665 3.4375 7.5 C3 11 3 11 1.5 13.4375 C-2.03214239 15.64508899 -4.9416196 15.6666744 -9 15 C-11.4375 13.9375 -11.4375 13.9375 -13 12 C-13.86703481 8.59379183 -14.29838543 6.10402609 -13.375 2.6875 C-9.75540413 -1.75473129 -5.17306569 -1.34116518 0 0 Z " transform="translate(917,41)" style="fill: rgb(237, 239, 236);"/>
  <path d="M0 0 C2.375 1.625 2.375 1.625 4 4 C4.55802097 7.90614682 4.58392818 10.05111671 2.5 13.4375 C-1.18144512 15.7384032 -3.69368174 15.34728373 -8 15 C-8.66 14.67 -9.32 14.34 -10 14 C-10 13.34 -10 12.68 -10 12 C-10.66 12 -11.32 12 -12 12 C-14.30376516 6.7862157 -14.30376516 6.7862157 -12.9375 3.25 C-9.15254365 -1.14543318 -5.46438584 -1.6276894 0 0 Z " transform="translate(1113,41)" style="fill: rgb(237, 239, 236);"/>
  <path d="M0 0 C4.455 0.99 4.455 0.99 9 2 C10 6 10 6 9 9 C9.39397335 11.63804589 9.39397335 11.63804589 10 14 C4.34605369 14.34615998 0.96993194 13.43425238 -4 11 C-3.21681311 7.08406554 -1.60820142 3.63593365 0 0 Z " transform="translate(70,51)" style="fill: rgb(237, 239, 236);"/>
  <path d="M0 0 C0.81017578 0.48339844 0.81017578 0.48339844 1.63671875 0.9765625 C5.22079109 2.52867316 8.88810734 2.73432761 12.75 3.125 C13.54277344 3.21136719 14.33554688 3.29773438 15.15234375 3.38671875 C17.10083141 3.59800054 19.05032976 3.79992467 21 4 C21 4.33 21 4.66 21 5 C20.37955811 5.04487549 19.75911621 5.08975098 19.11987305 5.13598633 C16.30781152 5.34735817 13.49786341 5.57967798 10.6875 5.8125 C9.71103516 5.88275391 8.73457031 5.95300781 7.72851562 6.02539062 C6.79072266 6.10595703 5.85292969 6.18652344 4.88671875 6.26953125 C4.02264404 6.33760986 3.15856934 6.40568848 2.26831055 6.47583008 C-0.3515755 7.08124342 -1.31652078 7.95044233 -3 10 C-6.81684226 8.44499019 -9.19195732 5.96404505 -12 3 C-11 1 -11 1 -8.8125 -0.1875 C-5.42591736 -1.1658461 -3.3961643 -0.86710578 0 0 Z " transform="translate(123,105)" style="fill: rgb(237, 239, 236);"/>
  <path d="M0 0 C5.02705917 0.12047418 8.09872551 0.24587237 12.0625 3.5625 C12.701875 4.366875 13.34125 5.17125 14 6 C13.360625 6.70125 12.72125 7.4025 12.0625 8.125 C9.83613898 11.22841233 9.34919057 13.24620139 9 17 C4.9787065 15.65956883 4.11049831 13.17755644 2.25 9.625 C1.92128906 9.03460938 1.59257813 8.44421875 1.25390625 7.8359375 C0.41643218 6.26699874 -0.29992603 4.63487862 -1 3 C-0.67 2.01 -0.34 1.02 0 0 Z " transform="translate(68,111)" style="fill: rgb(237, 239, 236);"/>
  <path d="M 0 0 C 2.563 1.438 2.563 1.438 5 4 C 5.154 7.189 4.178 9.216 3.571 12.388 C -1.379 12.388 -5.9 13 -11 13 C -11 10 -11 10 -9.355 8.281 C -8.64 7.693 -7.925 7.106 -7.187 6.5 C -4.68 4.417 -2.266 2.345 0 0 Z" transform="translate(141,87)" style="fill: rgb(237, 239, 236);"/>
  <path d="M0 0 C2.95573125 1.52264943 4.88212241 3.57929219 7.0625 6.0625 C7.0625 6.7225 7.0625 7.3825 7.0625 8.0625 C0.85351562 12.08007812 0.85351562 12.08007812 -2.75 12 C-4.9375 11.0625 -4.9375 11.0625 -6.9375 8.0625 C-6.7535984 5.21202528 -5.90062487 4.01545242 -4.125 1.75 C-1.9375 0.0625 -1.9375 0.0625 0 0 Z " transform="translate(549.9375,71.9375)" style="fill: rgb(237, 239, 236);"/>
  <path d="M0 0 C5.41028673 1.6907146 11.39988925 5.16321059 14.23828125 10.1953125 C14.48964844 10.79085937 14.74101563 11.38640625 15 12 C8.03949747 11.61330541 3.0605925 9.36561591 -3 6 C-2.42655063 3.13275314 -2.1385485 2.1385485 0 0 Z " transform="translate(112,127)" style="fill: rgb(237, 239, 236);"/>
  <path d="M0 0 C2 0 2 0 4.625 2.25 C7 5 7 5 7 9 C4.38282586 11.16851572 2.79298361 12 -0.625 12 C-3.75743861 10.68107848 -4.54047893 8.99585903 -6 6 C-4 4 -2 2 0 0 Z " transform="translate(789,72)" style="fill: rgb(237, 239, 236);"/>
  <path d="M0 0 C4.43458973 1.3937282 6.87378374 3.60582235 10 7 C5.05 9.475 5.05 9.475 0 12 C-1.32 10.35 -2.64 8.7 -4 7 C-2.92598892 4.08482708 -2.22189824 2.22189824 0 0 Z " transform="translate(1000,73)" style="fill: rgb(237, 239, 236);"/>
  <path d="M0 0 C1.32 0.66 2.64 1.32 4 2 C3.72510809 6.03174806 3.46508424 7.56894631 0.4375 10.375 C-0.366875 10.91125 -1.17125 11.4475 -2 12 C-5.7952131 10.50902342 -7.61042731 8.24299151 -10 5 C-9.36191406 4.72285156 -8.72382812 4.44570312 -8.06640625 4.16015625 C-7.24011719 3.79792969 -6.41382813 3.43570313 -5.5625 3.0625 C-4.73878906 2.70285156 -3.91507813 2.34320313 -3.06640625 1.97265625 C-1.05589883 1.16877677 -1.05589883 1.16877677 0 0 Z " transform="translate(575,116)" style="fill: rgb(237, 239, 236);"/>
  <path d="M0 0 C1.670625 0.061875 1.670625 0.061875 3.375 0.125 C3.375 3.095 3.375 6.065 3.375 9.125 C0.075 8.465 -3.225 7.805 -6.625 7.125 C-5.23611111 0.18055556 -5.23611111 0.18055556 0 0 Z " transform="translate(208.625,71.875)" style="fill: rgb(237, 239, 236);"/>
  <path d="M0 0 C0.33 1.65 0.66 3.3 1 5 C-0.65 6.32 -2.3 7.64 -4 9 C-6.4375 8.1875 -6.4375 8.1875 -9 7 C-9.33 6.01 -9.66 5.02 -10 4 C-10.66 3.67 -11.32 3.34 -12 3 C-10.75823305 2.29773859 -9.50614401 1.61370891 -8.25 0.9375 C-7.20585938 0.36322266 -7.20585938 0.36322266 -6.140625 -0.22265625 C-3.63859372 -1.1312406 -2.4667645 -0.88336837 0 0 Z " transform="translate(1031,118)" style="fill: rgb(237, 239, 236);"/>
  <path d="M0 0 C1.32 0.66 2.64 1.32 4 2 C4 3.98 4 5.96 4 8 C2.02 8.99 0.04 9.98 -2 11 C-3.70884005 9.37660195 -5.37446717 7.70680947 -7 6 C-7 5.34 -7 4.68 -7 4 C-6.030625 3.525625 -5.06125 3.05125 -4.0625 2.5625 C-1.19522563 1.29806053 -1.19522563 1.29806053 0 0 Z " transform="translate(816,116)" style="fill: rgb(237, 239, 236);"/>
  <path d="M 81.434 36.151 C 84.743 37.833 87.698 39.501 87.955 43.885 C 86.868 44.99 86.868 44.99 84.622 45.098 C 83.727 45.085 82.832 45.072 81.909 45.059 C 81.011 45.049 80.113 45.039 79.188 45.029 C 78.495 45.016 77.801 45.003 77.087 44.99 C 76.728 43.896 76.37 42.802 76 41.675 C 77.793 39.852 79.586 38.03 81.434 36.151 Z" style="fill: rgb(237, 239, 236);"/>
  <path d="M0 0 C0.598125 0.20625 1.19625 0.4125 1.8125 0.625 C2.1425 2.605 2.4725 4.585 2.8125 6.625 C0.8325 7.945 -1.1475 9.265 -3.1875 10.625 C-3.1875 8.315 -3.1875 6.005 -3.1875 3.625 C-3.8475 3.625 -4.5075 3.625 -5.1875 3.625 C-5.1875 2.965 -5.1875 2.305 -5.1875 1.625 C-2.1875 -0.375 -2.1875 -0.375 0 0 Z " transform="translate(493.1875,73.375)" style="fill: rgb(237, 239, 236);"/>
  <path d="M0 0 C1.11375 0.3403125 1.11375 0.3403125 2.25 0.6875 C2.25 3.6875 2.25 3.6875 1.0625 5.375 C-1.30741722 7.09114695 -2.89025666 6.91937108 -5.75 6.6875 C-6.08 5.3675 -6.41 4.0475 -6.75 2.6875 C-4.29511132 0.41445492 -3.41240272 -0.38777304 0 0 Z " transform="translate(154.75,56.3125)" style="fill: rgb(237, 239, 236);"/>
  <path d="M0 0 C0.99 0.33 1.98 0.66 3 1 C4.1875 4.0625 4.1875 4.0625 5 7 C2.525 8.485 2.525 8.485 0 10 C-2.875 5.25 -2.875 5.25 -4 3 C-2.1875 1.4375 -2.1875 1.4375 0 0 Z " transform="translate(618,73)" style="fill: rgb(237, 239, 236);"/>
  <path d="M0 0 C4 1 4 1 4 1 Z " transform="translate(1017,78)" style="fill: rgb(237, 239, 236);"/>
  <path d="M0 0 C4 1 4 1 4 1 Z " transform="translate(955,78)" style="fill: rgb(237, 239, 236);"/>
  <path d="M0 0 C4 1 4 1 4 1 Z " transform="translate(564,78)" style="fill: rgb(237, 239, 236);"/>
  <path d="M0 0 C4 1 4 1 4 1 Z " transform="translate(502,78)" style="fill: rgb(237, 239, 236);"/>
  <path d="" transform="translate(0,0)" style="fill: rgb(237, 239, 236);"/>
  <path d="M0 0 C3 1 3 1 3 1 Z " transform="translate(186,99)" style="fill: rgb(237, 239, 236);"/>
  <path d="" transform="translate(0,0)" style="fill: rgb(237, 239, 236);"/>
  <path d="M0 0 C2 1 2 1 2 1 Z " transform="translate(196,118)" style="fill: rgb(237, 239, 236);"/>
  <path d="M0 0 C2 1 2 1 2 1 Z " transform="translate(208,101)" style="fill: rgb(237, 239, 236);"/>
  <path d="M0 0 C2 1 2 1 2 1 Z " transform="translate(204,100)" style="fill: rgb(237, 239, 236);"/>
  <path d="M0 0 C2 1 2 1 2 1 Z " transform="translate(199,99)" style="fill: rgb(237, 239, 236);"/>
  <path d="" transform="translate(0,0)" style="fill: rgb(237, 239, 236);"/>
  <path d="M0 0 C2 1 2 1 2 1 Z " transform="translate(207,81)" style="fill: rgb(237, 239, 236);"/>
  <path d="M0 0 C2 1 2 1 2 1 Z " transform="translate(202,80)" style="fill: rgb(237, 239, 236);"/>
  <path d="M0 0 C2 1 2 1 2 1 Z " transform="translate(1226,78)" style="fill: rgb(237, 239, 236);"/>
  <path d="M0 0 C2 1 2 1 2 1 Z " transform="translate(806,78)" style="fill: rgb(237, 239, 236);"/>
  <path d="M0 0 C2 1 2 1 2 1 Z " transform="translate(631,78)" style="fill: rgb(237, 239, 236);"/>
  <path d="" transform="translate(0,0)" style="fill: rgb(237, 239, 236);"/>
  <path d="M0 0 C2 1 2 1 2 1 Z " transform="translate(210,68)" style="fill: rgb(237, 239, 236);"/>
  <path d="M0 0 C2 1 2 1 2 1 Z " transform="translate(153,68)" style="fill: rgb(237, 239, 236);"/>
  <path d="" transform="translate(0,0)" style="fill: rgb(237, 239, 236);"/>
  <path d="" transform="translate(0,0)" style="fill: rgb(237, 239, 236);"/>
  <path d="" transform="translate(0,0)" style="fill: rgb(237, 239, 236);"/>
  <path d="" transform="translate(0,0)" style="fill: rgb(237, 239, 236);"/>
  <path d="" transform="translate(0,0)" style="fill: rgb(237, 239, 236);"/>
  <path d="" transform="translate(0,0)" style="fill: rgb(237, 239, 236);"/>
  <path d="" transform="translate(0,0)" style="fill: rgb(237, 239, 236);"/>
  <path d="" transform="translate(0,0)" style="fill: rgb(237, 239, 236);"/>
  <path d="" transform="translate(0,0)" style="fill: rgb(237, 239, 236);"/>
  <path d="" transform="translate(0,0)" style="fill: rgb(237, 239, 236);"/>
  <path d="" transform="translate(0,0)" style="fill: rgb(237, 239, 236);"/>
  <path d="" transform="translate(0,0)" style="fill: rgb(237, 239, 236);"/>
  <path d="" transform="translate(0,0)" style="fill: rgb(237, 239, 236);"/>
  <path d="" transform="translate(0,0)" style="fill: rgb(237, 239, 236);"/>
  <path d="" transform="translate(0,0)" style="fill: rgb(237, 239, 236);"/>
  <path d="" transform="translate(0,0)" style="fill: rgb(237, 239, 236);"/>
  <path d="" transform="translate(0,0)" style="fill: rgb(237, 239, 236);"/>
  <path d="" transform="translate(0,0)" style="fill: rgb(237, 239, 236);"/>
  <path d="" transform="translate(0,0)" style="fill: rgb(237, 239, 236);"/>
  <path d="" transform="translate(0,0)" style="fill: rgb(237, 239, 236);"/>
  <path d="" transform="translate(0,0)" style="fill: rgb(237, 239, 236);"/>
  <path d="" transform="translate(0,0)" style="fill: rgb(237, 239, 236);"/>
  <path d="" transform="translate(0,0)" style="fill: rgb(237, 239, 236);"/>
  <path d="" transform="translate(0,0)" style="fill: rgb(237, 239, 236);"/>
  <path d="" transform="translate(0,0)" style="fill: rgb(237, 239, 236);"/>
</svg>